<svg xmlns="http://www.w3.org/2000/svg">
    <symbol id="connection" viewBox="0 0 1060 231">
        <path d="M101.81 0C112.917 0 122.419 0.215687 130.317 0.647054C138.215 1.07843 145.496 1.83334 152.16 2.91177C158.824 3.77452 165.735 5.06863 172.893 6.79411L169.19 31.0588C161.786 30.4118 154.875 29.9804 148.458 29.7647C142.041 29.3333 135.13 29.0098 127.726 28.7941C120.568 28.5784 111.93 28.4706 101.81 28.4706C86.0144 28.4706 73.5503 31.1667 64.4182 36.5588C55.2862 41.951 48.7456 51.0098 44.7966 63.7353C41.0944 76.2451 39.2433 93.5 39.2433 115.5C39.2433 137.5 41.0944 154.863 44.7966 167.588C48.7456 180.098 55.2862 189.049 64.4182 194.441C73.5503 199.833 86.0144 202.529 101.81 202.529C117.853 202.529 131.305 202.314 142.164 201.882C153.271 201.235 164.007 200.265 174.374 198.971L178.076 223.235C167.216 226.039 155.986 227.98 144.386 229.059C133.032 230.353 118.841 231 101.81 231C77.1291 231 57.2607 227.333 42.2051 220C27.3963 212.451 16.6599 200.265 9.99593 183.441C3.33198 166.618 0 143.971 0 115.5C0 87.0294 3.33198 64.3824 9.99593 47.5588C16.6599 30.7353 27.3963 18.6569 42.2051 11.3235C57.2607 3.77451 77.1291 0 101.81 0Z"/>
        <path d="M307.372 1.29412C328.598 1.29412 345.381 3.01961 357.722 6.47059C370.309 9.70588 379.442 15.5294 385.118 23.9412C390.795 32.3529 393.633 44.2157 393.633 59.5294C393.633 75.4902 390.178 87.6765 383.267 96.0882C376.603 104.5 365.497 109.353 349.947 110.647V111.941C369.199 113.451 382.527 119.274 389.931 129.412C397.582 139.549 401.408 153.569 401.408 171.471C401.408 186.784 398.57 198.647 392.893 207.059C387.463 215.471 378.701 221.402 366.607 224.853C354.513 228.088 338.594 229.706 318.849 229.706C304.04 229.706 291.206 229.598 280.346 229.382C269.486 229.382 259.49 229.167 250.358 228.735C241.226 228.304 231.724 227.765 221.851 227.118L227.034 202.206C232.711 202.422 243.201 202.637 258.503 202.853C274.052 203.069 292.193 203.176 312.925 203.176C326.007 203.176 336.249 202.206 343.654 200.265C351.058 198.324 356.241 194.657 359.203 189.265C362.411 183.873 364.016 176 364.016 165.647C364.016 154.431 362.411 145.912 359.203 140.088C355.994 134.049 350.441 129.843 342.543 127.471C334.892 124.882 324.279 123.48 310.704 123.265H226.664V99.647H310.334C322.181 99.4314 331.56 98.353 338.471 96.4118C345.381 94.4706 350.318 90.9118 353.279 85.7353C356.241 80.3431 357.722 72.902 357.722 63.4118C357.722 53.7059 356.118 46.2647 352.909 41.0882C349.701 35.9118 344.271 32.4608 336.619 30.7353C329.215 28.7941 318.849 27.8235 305.521 27.8235C293.18 27.8235 282.074 27.8235 272.201 27.8235C262.576 27.8235 253.937 27.9314 246.286 28.1471C238.881 28.1471 232.464 28.3627 227.034 28.7941L221.851 3.88234C230.737 3.0196 239.128 2.48039 247.026 2.2647C255.171 1.83333 264.056 1.61764 273.682 1.61764C283.308 1.40196 294.538 1.29412 307.372 1.29412ZM258.133 3.88234V227.118H221.851V3.88234H258.133Z"/>
        <path d="M530.623 0.970576C544.445 0.970576 556.292 1.07842 566.164 1.29412C576.037 1.29412 585.046 1.50981 593.19 1.94117C601.335 2.37255 610.097 3.0196 619.476 3.88234L614.293 29.1176C608.863 28.6863 598.867 28.3627 584.305 28.1471C569.743 27.9314 551.973 27.8235 530.994 27.8235C519.64 27.8235 510.631 29.0098 503.967 31.3824C497.304 33.7549 492.367 37.9608 489.159 44C486.197 49.8235 484.593 57.9118 484.346 68.2647C484.346 77.5392 485.703 85.3039 488.418 91.5588C491.38 97.8137 496.193 102.559 502.857 105.794C509.521 108.814 518.529 110.324 529.883 110.324H613.923L615.033 136.529C611.578 136.529 607.382 136.637 602.446 136.853C597.51 136.853 591.586 136.961 584.675 137.176C577.765 137.176 569.743 137.284 560.611 137.5C551.726 137.5 541.607 137.5 530.253 137.5C521.861 137.5 514.951 139.225 509.521 142.676C504.338 145.912 500.389 151.735 497.674 160.147L476.201 227.118H436.587L459.911 158.853C462.133 152.167 465.094 146.667 468.797 142.353C472.746 137.824 477.065 134.373 481.754 132C486.444 129.627 491.01 128.01 495.452 127.147L495.082 125.529C483.482 124.02 474.103 120.784 466.946 115.824C460.035 110.647 454.975 103.961 451.767 95.7647C448.805 87.3529 447.324 77.6471 447.324 66.6471C447.324 50.4706 450.162 37.6373 455.839 28.1471C461.516 18.6569 470.524 11.7549 482.865 7.44117C495.206 3.12744 511.125 0.970576 530.623 0.970576ZM619.476 3.88234V227.118H582.454V3.88234H619.476Z"/>
        <path d="M742.08 1.29412C763.059 1.29412 779.719 3.01961 792.059 6.47059C804.4 9.70588 813.285 15.5294 818.715 23.9412C824.145 32.3529 826.86 44.2157 826.86 59.5294C826.86 75.4902 823.528 87.6765 816.864 96.0882C810.2 104.5 799.217 109.353 783.914 110.647V111.941C802.919 113.451 816 119.274 823.158 129.412C830.562 139.549 834.264 153.569 834.264 171.471C834.264 186.784 831.549 198.647 826.12 207.059C820.69 215.471 812.051 221.402 800.204 224.853C788.357 228.088 772.684 229.706 753.186 229.706C741.092 229.706 729.862 229.49 719.496 229.059C709.13 228.627 699.381 227.873 690.249 226.794C681.117 225.5 672.231 223.882 663.593 221.941L666.555 198.971C677.168 200.049 689.262 201.127 702.836 202.206C716.658 203.069 731.343 203.5 746.892 203.5C759.48 203.5 769.229 202.529 776.14 200.588C783.297 198.647 788.48 194.98 791.689 189.588C794.898 183.98 796.502 176 796.502 165.647C796.502 154.863 794.898 146.451 791.689 140.412C788.48 134.157 783.05 129.843 775.399 127.471C767.748 124.882 757.505 123.588 744.671 123.588H700.245V99.3235H744.671C756.024 99.3235 764.91 98.353 771.327 96.4118C777.991 94.2549 782.68 90.5882 785.395 85.4118C788.357 80.2353 789.838 72.902 789.838 63.4118C789.838 53.4902 788.234 45.9412 785.025 40.7647C782.063 35.5882 776.88 32.0294 769.476 30.0882C762.318 28.1471 752.446 27.1765 739.858 27.1765C725.79 27.1765 713.202 27.6078 702.096 28.4706C690.989 29.3333 681.117 30.0882 672.478 30.7353L669.516 6.79411C681.117 4.85293 692.47 3.45097 703.577 2.58824C714.683 1.72549 727.518 1.29412 742.08 1.29412Z"/>
        <path d="M974.479 92.5294C995.952 92.5294 1012.86 94.7941 1025.2 99.3235C1037.79 103.637 1046.67 110.863 1051.86 121C1057.29 130.922 1060 144.51 1060 161.765C1060 179.667 1057.29 193.578 1051.86 203.5C1046.67 213.206 1038.16 220 1026.31 223.882C1014.71 227.765 999.407 229.706 980.403 229.706C966.088 229.706 953.624 229.598 943.011 229.382C932.644 229.382 923.142 229.167 914.504 228.735C905.865 228.304 896.857 227.765 887.478 227.118L892.29 201.559C897.967 201.775 907.963 201.99 922.278 202.206C936.84 202.422 954.24 202.529 974.479 202.529C987.56 202.529 997.556 201.451 1004.47 199.294C1011.38 197.137 1016.19 193.039 1018.91 187C1021.62 180.961 1022.98 172.333 1022.98 161.118C1022.98 150.549 1021.62 142.137 1018.91 135.882C1016.44 129.627 1011.75 125.098 1004.84 122.294C997.927 119.49 987.807 118.088 974.479 118.088H891.92V92.5294H974.479ZM923.389 3.88234V227.118H886.367V3.88234H923.389Z"/>
    </symbol>
    <symbol viewBox="0 0 100 100"  id="play">
        <path fill-rule="evenodd" clip-rule="evenodd"
              d="M100 50C100 63.2608 94.7322 75.9785 85.3553 85.3553C75.9785 94.7322 63.2608 100 50 100C36.7392 100 24.0215 94.7322 14.6447 85.3553C5.26784 75.9785 0 63.2608 0 50C0 36.7392 5.26784 24.0215 14.6447 14.6447C24.0215 5.26784 36.7392 0 50 0C63.2608 0 75.9785 5.26784 85.3553 14.6447C94.7322 24.0215 100 36.7392 100 50ZM40.8483 31.2599C41.4204 31.3009 41.9702 31.4986 42.4375 31.8312L64.3125 47.4562C64.7176 47.7453 65.0478 48.127 65.2756 48.5694C65.5034 49.0119 65.6223 49.5023 65.6223 50C65.6223 50.4977 65.5034 50.9881 65.2756 51.4306C65.0478 51.873 64.7176 52.2547 64.3125 52.5437L42.4375 68.1687C41.9702 68.5014 41.4204 68.6991 40.8483 68.7401C40.2761 68.7811 39.7037 68.6638 39.1938 68.4011C38.6839 68.1384 38.2561 67.7404 37.9573 67.2507C37.6586 66.7611 37.5004 66.1986 37.5 65.625V34.375C37.5004 33.8014 37.6586 33.2389 37.9573 32.7493C38.2561 32.2596 38.6839 31.8616 39.1938 31.5989C39.7037 31.3362 40.2761 31.2189 40.8483 31.2599Z"/>
        <path d="M42.4375 31.8312C41.9702 31.4986 41.4204 31.3009 40.8483 31.2599C40.2761 31.2189 39.7037 31.3362 39.1938 31.5989C38.6839 31.8616 38.2561 32.2596 37.9573 32.7493C37.6586 33.2389 37.5004 33.8014 37.5 34.375V65.625C37.5004 66.1986 37.6586 66.7611 37.9573 67.2507C38.2561 67.7404 38.6839 68.1384 39.1938 68.4011C39.7037 68.6638 40.2761 68.7811 40.8483 68.7401C41.4204 68.6991 41.9702 68.5014 42.4375 68.1687L64.3125 52.5437C64.7176 52.2547 65.0478 51.873 65.2756 51.4306C65.5034 50.9881 65.6223 50.4977 65.6223 50C65.6223 49.5023 65.5034 49.0119 65.2756 48.5694C65.0478 48.127 64.7176 47.7453 64.3125 47.4562L42.4375 31.8312Z"
              fill="black"/>
    </symbol>


</svg>