<svg xmlns="http://www.w3.org/2000/svg">
    <symbol id="logo" viewBox="0 0 35 30">
        <g clip-path="url(#clip0_302_7664)">
            <path d="M16.6074 3.73633L17.7177 4.95693C17.3657 4.50697 16.9939 4.10176 16.6074 3.73633Z" fill="black"/>
            <path d="M32.3527 4.03465L31.8849 3.56232C28.3547 -0.00252736 22.6286 -0.00252736 19.0984 3.56232L17.7149 4.95942C15.2629 7.28379 11.5555 10.7716 9.15767 13.1233C9.13552 13.1457 9.11336 13.1655 9.08628 13.1829C6.88544 14.759 3.74666 15.291 1.46458 13.6354C1.3858 13.5782 1.32426 13.4987 1.28241 13.4092C1.2701 13.3818 1.26025 13.3545 1.2504 13.3246C-1.44772 3.92776 9.96022 -2.50091 16.607 3.73634L16.5652 3.68911C16.4667 3.57972 16.3658 3.47283 16.2649 3.3709C16.1639 3.26649 16.0655 3.1596 15.9571 3.06513C15.7479 2.86377 15.5263 2.67732 15.2998 2.49585C14.3841 1.78487 13.3255 1.24293 12.1955 0.932189C11.068 0.621446 9.87652 0.519522 8.7047 0.658735C7.53535 0.795462 6.3857 1.15841 5.3419 1.72769C4.82246 2.01606 4.32764 2.35415 3.87221 2.7345C3.64326 2.92343 3.42417 3.13225 3.21245 3.33362C3.00812 3.53746 2.80626 3.72888 2.60193 3.95262L2.31144 4.26585C2.30159 4.27579 2.29174 4.28573 2.28436 4.29816L2.01602 4.63128L1.8757 4.80778C1.82893 4.86745 1.78954 4.92959 1.74522 4.99174L1.49166 5.36463C1.40796 5.48893 1.33903 5.62317 1.26271 5.75244C1.18886 5.8842 1.10762 6.01098 1.04608 6.14771L0.851595 6.55292L0.812206 6.63744C0.807282 6.64987 0.802359 6.6623 0.797435 6.67224L0.76297 6.75925L0.679269 6.96807C0.450323 7.51995 0.297692 8.09918 0.177064 8.68338C0.174603 8.69332 0.172141 8.70326 0.172141 8.71321C0.127829 9.00655 0.0687457 9.29741 0.0490514 9.59323C0.0367425 9.74239 0.0195098 9.89403 0.0121244 10.0432L0.00227727 10.4956C-0.0051081 10.6473 0.00720089 10.7964 0.0145863 10.9481C0.0244334 11.0972 0.029357 11.2489 0.0441277 11.398L0.100749 11.8455C0.110596 11.9201 0.117981 11.9947 0.132752 12.0692L0.177064 12.2905C0.206606 12.4372 0.236147 12.5863 0.268151 12.733L0.388778 13.168C0.408472 13.2401 0.428167 13.3122 0.450323 13.3843C0.470017 13.4415 0.494635 13.4937 0.521715 13.5459C0.772817 14.2196 1.7083 15.2562 2.17111 15.8703C2.17604 15.8752 2.17604 15.8777 2.1785 15.8802C2.39514 16.1661 2.62408 16.4395 2.85057 16.6956C2.85057 16.6981 2.85549 16.7006 2.85795 16.703C3.34046 17.2475 3.81559 17.7099 4.15039 18.0181C4.36949 18.2195 4.52705 18.3562 4.58859 18.4084C4.60336 18.4208 4.61567 18.4308 4.62798 18.4432L14.2167 28.1235C15.1595 29.0756 16.3879 29.5678 17.6238 29.5977C17.6853 29.5977 17.7444 29.5977 17.8059 29.5977C19.0615 29.5827 20.312 29.0905 21.2697 28.1235L32.3502 16.9342C35.8829 13.3793 35.8829 7.5995 32.3527 4.03465Z"
                  fill="black"/>
        </g>
        <defs>
            <clipPath id="clip0_302_7664">
                <rect width="100%" height="100%" fill="white"/>
            </clipPath>
        </defs>
    </symbol>
    <svg id="list-arrow" viewBox="0 0 26 26" fill="none">
        <path d="M25 1L1 25" stroke-width="2" stroke-linecap="round"/>
        <path d="M5.23438 1H24.6461" stroke-width="2" stroke-linecap="round"/>
        <path d="M25 20.4121L25 1.00035" stroke-width="2" stroke-linecap="round"/>
    </svg>
</svg>